<svg id="Capa_1" enable-background="new 0 0 511.137 511.137" height="512" viewBox="0 0 511.137 511.137" width="512" xmlns="http://www.w3.org/2000/svg"><g><g><path d="m88.47 270.419-41.118-40.119v-142.336l28.476-28.476c7.473-7.473 7.473-19.59 0-27.063-7.473-7.473-19.59-7.473-27.063 0l-34.786 34.786c-4.148 4.148-6.479 9.775-6.479 15.642v187.677 22.99l71.771 40.593 35.792-44.958z" fill="#b5adb6"/><path d="m503.636 82.347c0-5.867-2.331-11.493-6.479-15.642l-34.785-34.785c-7.473-7.473-19.59-7.473-27.063 0-7.473 7.473-7.473 19.59 0 27.063l28.476 28.476v142.336l-41.119 40.119-62.403 50.051h143.373z" fill="#b5adb6"/><path d="m7.5 270.53v205.125c0 5.063 4.104 9.167 9.167 9.167h181.024c2.431 0 4.763-.966 6.482-2.685l45.018-45.018c3.522-3.522 9.232-3.522 12.753 0l45.018 45.018c1.719 1.719 4.051 2.685 6.482 2.685h181.024c5.063 0 9.167-4.104 9.167-9.167v-205.125z" fill="#a6e7f0"/><g><g><g><path d="m210.657 310.53h-158.246c-2.712 0-4.911 2.199-4.911 4.911v124.47c0 2.712 2.199 4.911 4.911 4.911h128.041c1.303 0 2.552-.517 3.473-1.438l30.205-30.205c.921-.921 1.438-2.17 1.438-3.473v-94.264c0-2.713-2.198-4.912-4.911-4.912z" fill="#82aee3"/></g><g><path d="m300.479 310.53h158.246c2.712 0 4.911 2.199 4.911 4.911v124.47c0 2.712-2.199 4.911-4.911 4.911h-128.04c-1.302 0-2.552-.517-3.473-1.438l-30.205-30.205c-.921-.921-1.438-2.17-1.438-3.473v-94.264c-.001-2.713 2.198-4.912 4.91-4.912z" fill="#fd8087"/></g></g></g><g><path d="m139.812 426.64c-26.651 0-48.256-21.605-48.256-48.256v-67.854h-39.145c-2.712 0-4.911 2.199-4.911 4.911v124.47c0 2.712 2.199 4.911 4.911 4.911h128.041c1.302 0 2.552-.517 3.473-1.438l16.744-16.744z" fill="#528fd8"/><path d="m397.651 426.64c-15.971 0-31.288-6.345-42.582-17.638-9.889-9.889-15.444-23.301-15.444-37.286v-61.186h-39.146c-2.712 0-4.911 2.199-4.911 4.911v94.264c0 1.302.517 2.552 1.438 3.473l30.206 30.206c.921.921 2.17 1.438 3.473 1.438h128.041c2.712 0 4.911-2.199 4.911-4.911v-13.271z" fill="#fe646f"/></g></g><g><path d="m52.411 452.322h128.041c3.314 0 6.43-1.291 8.776-3.635l30.205-30.206c2.344-2.344 3.635-5.461 3.635-8.776v-94.264c0-6.844-5.567-12.411-12.411-12.411h-158.246c-6.844 0-12.411 5.567-12.411 12.411v68.209c0 4.142 3.358 7.5 7.5 7.5s7.5-3.358 7.5-7.5v-65.62h153.068v90.603l-28.688 28.689h-124.38v-21.709c0-4.142-3.358-7.5-7.5-7.5s-7.5 3.358-7.5 7.5v24.298c0 6.844 5.567 12.411 12.411 12.411z"/><path d="m321.908 448.687c2.345 2.344 5.461 3.635 8.776 3.635h128.041c6.844 0 12.411-5.567 12.411-12.411v-124.47c0-6.844-5.567-12.411-12.411-12.411h-20.078c-4.143 0-7.5 3.358-7.5 7.5s3.357 7.5 7.5 7.5h17.489v119.292h-124.38l-28.688-28.689v-90.603h103.617c4.143 0 7.5-3.358 7.5-7.5s-3.357-7.5-7.5-7.5h-106.206c-6.844 0-12.411 5.567-12.411 12.411v94.264c0 3.315 1.291 6.432 3.635 8.776z"/><path d="m511.137 82.347c0-7.912-3.081-15.35-8.676-20.945l-34.786-34.786c-5.03-5.031-11.72-7.801-18.834-7.801-7.115 0-13.804 2.771-18.835 7.802-5.03 5.031-7.802 11.72-7.802 18.835s2.771 13.804 7.802 18.834l26.279 26.279v136.069l-37.303 36.396h-327.345l-36.785-35.891v-81.884c0-4.142-3.358-7.5-7.5-7.5s-7.5 3.358-7.5 7.5v85.045c0 2.021.816 3.957 2.262 5.368l28.043 27.362h-55.157v-180.177c0-3.905 1.521-7.577 4.283-10.338l34.785-34.785c4.538-4.537 11.92-4.537 16.457 0s4.537 11.919 0 16.457l-28.477 28.474c-1.407 1.406-2.197 3.314-2.197 5.303v25.329c0 4.142 3.358 7.5 7.5 7.5s7.5-3.358 7.5-7.5v-22.222l26.279-26.279c10.385-10.386 10.385-27.284 0-37.669-10.386-10.386-27.284-10.385-37.669 0l-34.785 34.785c-5.595 5.595-8.676 13.033-8.676 20.945v392.802c0 9.19 7.477 16.667 16.667 16.667h181.024c4.453 0 8.638-1.734 11.785-4.882l45.018-45.018c.592-.592 1.556-.592 2.147 0l45.019 45.019c3.148 3.147 7.334 4.881 11.785 4.881h181.023c9.19 0 16.668-7.477 16.668-16.667v-393.308zm-42.115 152.816c1.447-1.412 2.263-3.347 2.263-5.368v-142.336c0-1.989-.79-3.897-2.196-5.303l-28.477-28.477c-2.197-2.197-3.408-5.12-3.408-8.228s1.211-6.03 3.409-8.229c2.197-2.198 5.119-3.408 8.228-3.408 3.107 0 6.03 1.21 8.228 3.408l34.785 34.786c2.763 2.762 4.283 6.434 4.283 10.338v180.684h-55.676zm27.115 240.492c0 .919-.748 1.667-1.668 1.667h-181.024c-.445 0-.864-.174-1.179-.488l-45.019-45.019c-3.22-3.22-7.45-4.83-11.68-4.83s-8.46 1.61-11.68 4.83l-45.019 45.019c-.31.31-.739.488-1.178.488h-181.023c-.919 0-1.667-.748-1.667-1.667v-197.625h481.136v197.625z"/></g></g></svg>